<svg xmlns="http://www.w3.org/2000/svg" width="28" height="21" viewBox="0 0 28 21" fill="none">
    <path
        d="M0.350528 9.96617L24.9674 9.98164C24.6332 9.76934 24.2911 9.51259 23.9574 9.20235C23.1117 8.41608 22.6048 7.55082 22.3092 6.88322C22.1611 6.54892 22.0651 6.26204 22.0055 6.05589C21.9757 5.95272 21.9549 5.86947 21.9413 5.81025C21.9345 5.78063 21.9294 5.75699 21.9259 5.73984L21.9218 5.71904L21.9205 5.7124L21.9201 5.71005L21.9199 5.70911L21.9198 5.7087C21.9198 5.70852 21.9198 5.70834 22.4118 5.61966C22.9039 5.53099 22.9039 5.53082 22.9039 5.53066L22.9057 5.53967C22.9076 5.54897 22.9109 5.56452 22.9158 5.5858C22.9256 5.62839 22.9418 5.69384 22.9662 5.77822C23.015 5.94718 23.0962 6.19085 23.2235 6.47829C23.4786 7.05417 23.9147 7.79716 24.6383 8.46998C25.362 9.14281 26.1348 9.52374 26.7276 9.73622C27.0236 9.84227 27.2725 9.90555 27.4446 9.94197C27.5305 9.96016 27.597 9.97158 27.6402 9.97827C27.6617 9.98161 27.6775 9.98377 27.6869 9.98499L27.696 9.98613L27.6954 9.99051L27.6633 10.5958C27.7317 10.9754 27.7319 10.9754 27.732 10.9753L27.723 10.9771C27.7137 10.979 27.6982 10.9823 27.6769 10.9872C27.6343 10.997 27.5689 11.0133 27.4845 11.0377C27.3155 11.0865 27.0718 11.1677 26.7844 11.295C26.2085 11.55 25.4655 11.9861 24.7927 12.7098C24.1199 13.4335 23.739 14.2062 23.5265 14.7991C23.4204 15.0951 23.3571 15.344 23.3207 15.5161C23.3025 15.602 23.2911 15.6684 23.2844 15.7116C23.2811 15.7332 23.2789 15.749 23.2777 15.7584L23.2766 15.7675C23.2766 15.7673 23.2766 15.7672 22.7794 15.7145C22.2822 15.6618 22.2822 15.6617 22.2822 15.6615L22.2822 15.6611L22.2823 15.6601L22.2826 15.6577L22.2834 15.651L22.286 15.63C22.2882 15.6126 22.2915 15.5887 22.2962 15.5586C22.3055 15.4986 22.3202 15.414 22.3424 15.309C22.3868 15.099 22.4618 14.8059 22.5851 14.4618C22.8314 13.7744 23.2741 12.8746 24.0603 12.0289C24.4616 11.5973 24.8835 11.2539 25.2892 10.9818L0.349899 10.9662L0.350528 9.96617Z"
        fill="currentColor" />
</svg>