<svg width="20" height="21" viewBox="0 0 20 21" fill="none" xmlns="http://www.w3.org/2000/svg">
    <path
        d="M14.166 3H17.4993C17.7204 3 17.9323 3.0878 18.0886 3.24408C18.2449 3.40036 18.3327 3.61232 18.3327 3.83334V17.1667C18.3327 17.3877 18.2449 17.5996 18.0886 17.7559C17.9323 17.9122 17.7204 18 17.4993 18H2.49935C2.27834 18 2.06637 17.9122 1.91009 17.7559C1.75381 17.5996 1.66602 17.3877 1.66602 17.1667V3.83334C1.66602 3.61232 1.75381 3.40036 1.91009 3.24408C2.06637 3.0878 2.27834 3 2.49935 3H5.83268V1.33334H7.49935V3H12.4993V1.33334H14.166V3ZM12.4993 4.66667H7.49935V6.33334H5.83268V4.66667H3.33268V8H16.666V4.66667H14.166V6.33334H12.4993V4.66667ZM16.666 9.66667H3.33268V16.3333H16.666V9.66667Z"
        fill="currentColor" />
</svg>